<?xml version="1.0" standalone="no"?>
<!DOCTYPE svg PUBLIC "-//W3C//DTD SVG 20010904//EN"
 "http://www.w3.org/TR/2001/REC-SVG-20010904/DTD/svg10.dtd">
<svg version="1.0" xmlns="http://www.w3.org/2000/svg"
 width="400.000000pt" height="400.000000pt" viewBox="0 0 400.000000 400.000000"
 preserveAspectRatio="xMidYMid meet">

<g transform="translate(0.000000,400.000000) scale(0.100000,-0.100000)"
fill="#000000" stroke="none">
<path d="M2008 3330 c93 -44 88 -43 162 -41 53 2 54 2 30 16 -14 8 -48 14 -77
15 -34 0 -68 8 -101 25 -28 14 -61 25 -73 24 -16 0 4 -14 59 -39z"/>
<path d="M2250 3320 c55 -28 87 -39 120 -39 44 0 44 0 20 14 -14 8 -36 15 -50
15 -14 0 -43 9 -65 19 -81 36 -99 30 -25 -9z"/>
<path d="M1734 3333 c4 -5 48 -26 98 -49 90 -40 92 -41 136 -27 57 17 61 20
30 32 -16 6 -40 6 -65 -1 -35 -8 -48 -6 -108 21 -64 29 -108 40 -91 24z"/>
<path d="M1571 3270 c-6 -3 34 -27 90 -53 l102 -47 49 27 c45 25 48 28 32 40
-24 17 -31 17 -66 -9 -34 -23 -50 -21 -150 27 -25 12 -51 19 -57 15z"/>
<path d="M2198 3227 c12 -7 20 -15 17 -18 -9 -10 109 -58 192 -79 85 -21 127
-25 80 -8 -15 5 -25 13 -22 18 7 11 -103 57 -195 80 -90 23 -104 24 -72 7z"/>
<path d="M1446 3191 c-3 -4 43 -29 101 -54 l107 -47 28 27 c33 32 35 40 8 48
-13 4 -27 -1 -42 -14 -28 -26 -31 -26 -98 5 -81 38 -99 44 -104 35z"/>
<path d="M2434 3071 c47 -48 53 -51 160 -75 61 -15 116 -26 121 -26 10 0 -50
57 -92 86 -21 15 -190 63 -223 64 -8 0 7 -22 34 -49z"/>
<path d="M1340 3103 c0 -6 46 -31 102 -57 l101 -47 29 28 c33 32 35 40 7 48
-14 5 -28 0 -45 -16 l-23 -22 -73 33 c-98 43 -98 44 -98 33z"/>
<path d="M1235 2989 c-4 -5 2 -12 12 -16 10 -4 59 -24 108 -45 l90 -38 28 32
c31 37 34 53 10 62 -16 6 -52 -26 -53 -46 0 -15 -29 -8 -109 27 -46 19 -83 30
-86 24z"/>
<path d="M1996 2973 c-4 -11 -3 -28 0 -38 5 -12 4 -16 -4 -12 -16 11 -25 -83
-21 -218 l4 -116 -23 28 c-103 124 -234 231 -257 210 -10 -10 -9 -13 6 -17 22
-6 141 -91 135 -97 -2 -3 -18 3 -35 11 -70 36 -89 11 -51 -67 l21 -42 -26 30
c-71 82 -98 136 -82 163 5 6 4 12 -1 12 -6 0 -13 -8 -16 -17 -6 -15 -8 -15
-16 -3 -16 25 -11 1 7 -33 38 -74 126 -174 218 -248 l31 -24 -129 4 c-138 3
-221 -4 -211 -20 3 -6 -5 -8 -23 -4 -23 4 -24 4 -8 -4 17 -8 18 -10 3 -10 -10
-1 -18 -6 -18 -11 0 -6 13 -4 29 5 30 15 170 39 179 31 2 -3 -14 -10 -36 -15
-79 -22 -81 -61 -5 -86 l48 -15 -67 4 c-56 4 -90 14 -152 44 -5 3 -6 0 -2 -7
4 -6 1 -11 -6 -11 -10 0 -10 -2 1 -9 8 -5 21 -7 29 -3 10 3 13 1 9 -6 -14 -22
243 -37 333 -19 l35 7 -45 -37 c-102 -84 -235 -247 -213 -262 5 -3 12 -14 16
-23 14 -37 42 -39 93 -5 52 34 165 141 205 194 l24 33 -3 -111 c-5 -121 5
-242 18 -234 4 3 6 -4 3 -15 -4 -16 -2 -19 11 -14 11 4 16 1 16 -12 0 -9 3
-14 6 -11 4 3 -1 22 -10 41 -9 19 -19 63 -21 98 l-6 63 16 -37 c9 -20 23 -39
31 -42 17 -6 43 31 54 77 7 29 8 27 9 -19 1 -28 -5 -71 -13 -97 -11 -37 -11
-45 0 -40 19 7 29 83 28 218 l-1 120 101 -101 c102 -102 163 -146 163 -119 0
8 -7 11 -16 7 -9 -3 -13 -2 -9 2 4 5 -14 24 -40 44 -55 42 -77 62 -65 62 4 0
17 -7 27 -15 11 -8 32 -15 48 -15 22 0 28 4 28 23 0 12 -7 35 -15 51 -9 16
-14 31 -12 33 6 5 83 -97 98 -129 6 -15 16 -25 20 -22 5 3 9 0 9 -7 0 -7 3 -9
7 -6 19 20 -212 287 -248 287 -5 0 -9 4 -9 8 0 4 34 4 75 -1 79 -10 245 -1
245 13 0 4 10 6 23 3 18 -4 19 -3 7 7 -12 9 -10 11 11 6 27 -6 79 24 79 45 0
15 -63 50 -79 44 -8 -3 -18 0 -22 7 -6 10 -50 13 -177 13 l-168 0 35 26 c82
60 246 257 228 275 -11 11 -34 -10 -45 -40 -7 -19 -31 -54 -53 -78 -37 -40
-39 -41 -24 -11 34 72 8 92 -70 53 l-40 -21 45 42 c25 23 62 50 83 60 21 11
35 24 32 30 -14 22 -140 -80 -224 -181 l-46 -56 -1 151 c0 87 -5 161 -12 175
-6 14 -11 18 -12 10 0 -13 -2 -13 -11 0 -9 12 -10 11 -4 -5 17 -52 34 -190 18
-145 -36 101 -65 104 -100 13 l-14 -38 6 62 c7 72 21 120 44 147 10 13 11 17
2 11 -8 -4 -16 -2 -21 5 -6 9 -10 7 -14 -7z m73 -190 c23 -82 6 -240 -27 -251
-21 -7 -42 62 -42 140 0 95 15 148 40 148 14 0 22 -11 29 -37z m371 -13 c-6
-11 -13 -20 -16 -20 -2 0 0 9 6 20 6 11 13 20 16 20 2 0 0 -9 -6 -20z m-627
-72 c69 -36 157 -136 157 -177 0 -28 -18 -26 -71 7 -46 30 -139 124 -139 141
0 5 -3 16 -6 25 -7 20 26 22 59 4z m507 -6 c0 -49 -143 -192 -192 -192 -27 0
-22 30 14 84 58 89 178 161 178 108z m170 -216 c36 -8 68 -12 72 -10 10 7 68
-24 68 -36 0 -13 -49 -44 -57 -37 -3 3 2 13 11 22 21 21 20 22 -6 36 -21 11
-22 11 -10 -4 28 -34 -24 -62 -133 -71 l-70 -6 43 14 c23 8 49 19 57 26 23 19
1 48 -45 60 -84 23 -30 27 70 6z m-420 -6 c0 -5 6 -10 14 -10 19 0 16 -49 -4
-70 -8 -8 -25 -15 -36 -14 -48 1 -72 63 -36 90 20 16 62 18 62 4z m-143 -23
c17 -17 17 -19 -1 -32 -27 -20 -97 -29 -178 -22 -70 6 -98 18 -98 42 0 24 53
35 157 32 83 -2 106 -6 120 -20z m491 4 c31 -17 27 -30 -13 -47 -41 -17 -178
-19 -224 -3 -44 16 -41 44 7 58 46 13 201 8 230 -8z m-448 -107 c0 -71 -175
-226 -213 -188 -18 19 97 159 158 192 29 16 55 14 55 -4z m198 -3 c46 -24 137
-117 151 -154 31 -82 -104 -15 -178 88 -31 43 -41 85 -21 85 6 0 27 -9 48 -19z
m-107 -33 c32 -59 18 -264 -19 -276 -37 -12 -58 189 -28 263 17 40 30 44 47
13z m-311 -118 c-36 -71 -20 -94 46 -64 22 10 44 20 49 22 17 7 -48 -48 -92
-77 -23 -16 -41 -30 -38 -32 2 -3 -7 -4 -21 -4 -28 2 -61 49 -42 61 7 5 8 2 3
-6 -6 -9 -4 -11 4 -6 7 5 10 15 6 24 -3 9 -3 13 1 10 3 -4 26 20 51 53 25 32
47 59 49 59 2 0 -5 -18 -16 -40z"/>
<path d="M2539 2972 c5 -10 27 -36 48 -59 35 -38 46 -43 151 -68 62 -15 115
-25 117 -23 3 3 -19 30 -47 60 -52 55 -55 57 -160 82 -128 31 -121 30 -109 8z"/>
<path d="M2060 2956 c7 -7 13 -7 20 0 6 6 3 10 -10 10 -13 0 -16 -4 -10 -10z"/>
<path d="M1360 2830 c-11 -22 -25 -40 -31 -40 -5 0 -29 9 -52 19 -94 43 -119
51 -115 39 3 -9 188 -98 204 -98 2 0 15 22 29 50 25 48 25 50 5 60 -17 9 -22
5 -40 -30z"/>
<path d="M1643 2853 c9 -2 17 -9 17 -14 0 -5 7 -9 15 -9 8 0 15 5 15 11 0 5
-4 8 -9 4 -5 -3 -12 -1 -16 5 -3 5 -14 9 -23 9 -15 -1 -15 -2 1 -6z"/>
<path d="M2649 2823 c36 -68 46 -74 163 -109 61 -18 114 -31 117 -29 7 8 -40
88 -64 107 -11 9 -60 26 -110 38 -49 12 -98 23 -108 26 -17 5 -17 3 2 -33z"/>
<path d="M2461 2824 c0 -11 3 -14 6 -6 3 7 2 16 -1 19 -3 4 -6 -2 -5 -13z"/>
<path d="M2421 2814 c0 -11 3 -14 6 -6 3 7 2 16 -1 19 -3 4 -6 -2 -5 -13z"/>
<path d="M1116 2722 c-4 -8 163 -85 203 -94 8 -2 19 12 27 34 12 34 11 39 -6
48 -15 8 -20 5 -29 -20 -5 -17 -14 -30 -20 -30 -5 0 -44 16 -87 35 -86 39 -81
38 -88 27z"/>
<path d="M2700 2717 c0 -28 20 -77 38 -95 19 -19 231 -87 240 -77 9 9 -19 86
-38 105 -24 24 -240 84 -240 67z"/>
<path d="M1090 2581 c0 -4 49 -28 109 -53 119 -49 121 -49 121 17 0 23 -5 34
-18 37 -14 4 -18 -2 -20 -25 -2 -17 -4 -33 -6 -34 -2 -2 -42 12 -89 32 -93 38
-97 39 -97 26z"/>
<path d="M2740 2552 c0 -25 8 -44 23 -58 22 -21 233 -91 243 -81 10 10 -9 87
-22 87 -8 0 -14 6 -14 13 0 8 -20 18 -47 25 -27 6 -78 20 -115 31 l-68 20 0
-37z"/>
<path d="M1082 2459 c4 -13 192 -99 214 -99 21 0 19 76 -2 84 -23 9 -24 8 -24
-24 0 -16 -2 -30 -4 -30 -2 0 -43 18 -91 40 -96 44 -98 45 -93 29z"/>
<path d="M1470 2460 c-9 -6 -10 -10 -3 -10 6 0 15 5 18 10 8 12 4 12 -15 0z"/>
<path d="M2750 2418 c0 -56 27 -77 144 -110 55 -15 103 -28 108 -28 4 0 8 19
8 43 0 60 -24 77 -152 108 l-108 26 0 -39z"/>
<path d="M1100 2311 c0 -7 205 -101 220 -101 9 0 -2 84 -12 98 -19 22 -26 12
-21 -28 l6 -40 -59 26 c-33 14 -73 32 -91 40 -36 16 -43 17 -43 5z"/>
<path d="M2747 2313 c-14 -13 -7 -74 11 -92 16 -18 185 -71 223 -71 12 0 18
11 21 37 6 52 -18 72 -121 98 -47 12 -95 25 -107 29 -11 3 -23 3 -27 -1z"/>
<path d="M2725 2177 c-28 -92 -28 -87 -3 -111 15 -16 57 -33 118 -50 52 -14
98 -26 102 -26 6 0 38 91 38 107 0 2 -7 3 -15 3 -8 0 -15 6 -15 14 0 8 -18 18
-42 25 -24 6 -74 19 -111 30 -50 15 -69 17 -72 8z"/>
<path d="M1150 2167 c0 -11 209 -101 217 -93 6 5 -19 71 -33 86 -16 17 -18 3
-5 -33 l10 -25 -47 18 c-26 10 -68 28 -94 39 -33 14 -48 16 -48 8z"/>
<path d="M2404 2035 c-18 -14 -18 -14 4 -8 12 3 22 9 22 14 0 12 -3 11 -26 -6z"/>
<path d="M1220 2029 c0 -4 12 -15 28 -23 26 -14 202 -86 209 -86 3 0 -44 86
-54 99 -2 2 -6 2 -9 -1 -3 -4 2 -18 11 -32 10 -14 13 -26 8 -26 -5 0 -51 18
-101 39 -51 22 -92 35 -92 30z"/>
<path d="M2663 2018 c-33 -41 -35 -59 -11 -82 25 -26 216 -83 228 -69 4 4 17
25 29 45 l22 36 -21 7 c-11 4 -18 10 -15 15 4 6 -185 60 -213 60 -5 0 -14 -6
-19 -12z"/>
<path d="M2569 1879 c-20 -29 -21 -32 -5 -41 9 -5 14 -13 11 -19 -4 -5 -4 -9
-2 -9 2 0 48 -13 103 -30 54 -16 104 -30 110 -30 5 0 21 14 33 31 l23 31 -23
21 c-18 17 -189 77 -220 77 -4 0 -18 -14 -30 -31z"/>
<path d="M2075 1890 c3 -5 8 -10 11 -10 2 0 4 5 4 10 0 6 -5 10 -11 10 -5 0
-7 -4 -4 -10z"/>
<path d="M1350 1867 c15 -14 220 -100 225 -95 2 2 -13 21 -32 43 -19 22 -30
30 -23 18 6 -13 9 -23 8 -23 -2 0 -41 16 -87 35 -88 37 -115 44 -91 22z"/>
<path d="M2065 1859 c-4 -6 -5 -12 -2 -15 2 -3 7 2 10 11 7 17 1 20 -8 4z"/>
<path d="M2022 1844 c10 -10 20 -16 22 -13 3 3 -5 11 -17 18 -21 13 -21 12 -5
-5z"/>
<path d="M2476 1777 l-25 -31 22 -22 c13 -12 62 -33 116 -48 l94 -27 34 33
c32 31 33 33 13 40 -12 4 -19 12 -16 17 3 5 -22 16 -57 25 -34 8 -83 22 -109
30 l-47 15 -25 -32z"/>
<path d="M1470 1776 c0 -12 137 -89 205 -117 44 -17 85 -33 90 -36 6 -2 -3 6
-20 19 -16 13 -68 39 -116 59 -47 19 -100 45 -116 57 -30 21 -43 27 -43 18z"/>
<path d="M2357 1679 c-33 -27 -36 -33 -23 -41 9 -5 14 -13 11 -18 -3 -5 14
-14 37 -20 24 -7 72 -20 107 -29 l65 -18 43 30 c41 29 47 47 17 47 -8 0 -13 4
-9 10 3 5 -32 20 -77 34 -134 40 -129 40 -171 5z"/>
<path d="M2205 1595 c-44 -19 -48 -23 -28 -29 13 -4 22 -12 20 -18 -1 -6 42
-23 96 -38 l98 -29 51 24 c49 23 50 24 25 30 -15 4 -25 11 -22 16 3 4 -27 17
-67 29 -40 12 -84 25 -98 29 -18 6 -39 2 -75 -14z"/>
<path d="M2010 1535 c-44 -12 -45 -12 -17 -20 19 -5 25 -10 17 -15 -7 -5 21
-19 70 -35 80 -27 86 -27 154 -15 69 13 70 13 37 22 -21 6 -30 12 -23 17 7 4
-28 19 -81 34 -104 30 -96 30 -157 12z"/>
<path d="M1800 1510 c-23 -7 -23 -8 -3 -9 27 -1 41 -21 16 -22 -39 -3 126 -37
177 -37 l55 0 -40 13 c-26 8 -33 14 -20 15 22 2 -121 50 -145 49 -8 -1 -26 -5
-40 -9z"/>
<path d="M665 938 c-4 -173 -11 -298 -17 -305 -6 -7 -22 -13 -36 -13 -14 0
-23 -3 -19 -6 8 -8 205 -9 214 -1 3 4 -7 7 -24 7 -53 0 -56 13 -61 232 l-5
200 223 -226 c123 -124 228 -226 235 -226 9 0 14 74 19 288 5 172 12 292 18
300 6 6 19 12 29 12 11 0 19 4 19 8 0 4 -45 8 -100 8 -55 0 -100 -4 -100 -8 0
-4 11 -8 24 -8 46 0 51 -18 55 -238 l3 -204 -179 183 c-99 101 -201 208 -227
237 -27 28 -52 52 -56 52 -4 0 -11 -132 -15 -292z"/>
<path d="M1877 1217 c-3 -8 -9 -36 -13 -63 l-7 -49 31 33 c29 31 32 32 116 32
l86 0 -1 -247 c-1 -137 -4 -259 -8 -273 -5 -17 -16 -27 -36 -31 -17 -4 -28 -8
-25 -9 15 -6 253 -4 257 3 2 4 -12 7 -31 7 -25 0 -38 6 -46 19 -6 12 -10 118
-10 275 l0 256 65 0 c82 0 135 -20 136 -52 1 -13 5 1 10 31 5 30 7 56 5 59 -3
2 -114 5 -248 6 -134 1 -250 5 -259 9 -11 5 -18 3 -22 -6z"/>
<path d="M1374 1208 c-3 -4 8 -8 25 -8 20 0 34 -7 41 -19 13 -25 14 -500 0
-535 -7 -19 -17 -26 -36 -26 -15 0 -24 -3 -21 -7 10 -9 247 -10 247 0 0 4 -13
7 -30 7 -19 0 -33 7 -40 19 -6 12 -10 120 -10 280 l0 261 40 0 c78 0 140 -89
124 -176 -9 -47 -55 -99 -96 -109 -30 -7 -31 -8 -9 -12 13 -3 43 1 66 7 107
30 168 167 112 251 -40 61 -81 73 -255 74 -84 0 -156 -3 -158 -7z"/>
<path d="M2480 1208 c0 -4 14 -8 32 -10 27 -3 33 -8 41 -38 10 -41 4 -497 -7
-522 -5 -11 -19 -18 -34 -18 -14 0 -23 -2 -21 -5 3 -2 87 -7 187 -10 l182 -6
10 26 c5 14 10 43 9 63 l-1 37 -14 -32 c-7 -17 -23 -34 -34 -38 -34 -11 -141
-7 -156 6 -11 9 -14 40 -14 130 l0 119 68 0 c77 0 85 -4 100 -45 l10 -30 2 30
c0 17 3 48 6 69 5 35 4 38 -12 30 -11 -4 -54 -10 -96 -12 l-78 -4 0 111 0 111
74 0 c80 0 105 -12 107 -53 1 -20 2 -20 9 3 4 14 8 41 9 60 l1 35 -190 0
c-105 0 -190 -3 -190 -7z"/>
<path d="M3000 1208 c0 -4 11 -8 25 -8 18 0 28 -7 35 -26 11 -28 12 -485 1
-524 -5 -17 -16 -27 -36 -31 -38 -8 -43 -8 177 -14 172 -5 188 -4 197 12 12
23 18 100 8 109 -4 4 -7 -2 -7 -12 0 -11 -9 -30 -20 -42 -18 -19 -31 -22 -98
-22 -42 0 -84 5 -92 10 -13 8 -15 50 -18 261 -3 267 -1 279 44 279 13 0 24 3
24 8 0 4 -54 7 -120 8 -66 0 -120 -3 -120 -8z"/>
</g>
</svg>
